<?xml version="1.0" encoding="UTF-8" standalone="no"?>
<!-- Created with Inkscape (http://www.inkscape.org/) -->

<svg
   version="1.1"
   id="svg1"
   width="800"
   height="800"
   viewBox="0 0 800 800"
   sodipodi:docname="dog.svg"
   inkscape:version="1.4 (e7c3feb1, 2024-10-09)"
   xmlns:inkscape="http://www.inkscape.org/namespaces/inkscape"
   xmlns:sodipodi="http://sodipodi.sourceforge.net/DTD/sodipodi-0.dtd"
   xmlns="http://www.w3.org/2000/svg"
   xmlns:svg="http://www.w3.org/2000/svg">
  <sodipodi:namedview
     id="namedview1"
     pagecolor="#ffffff"
     bordercolor="#000000"
     borderopacity="0.25"
     inkscape:showpageshadow="2"
     inkscape:pageopacity="0.0"
     inkscape:pagecheckerboard="0"
     inkscape:deskcolor="#d1d1d1"
     inkscape:zoom="0.88"
     inkscape:cx="400.56818"
     inkscape:cy="348.29545"
     inkscape:window-width="1600"
     inkscape:window-height="754"
     inkscape:window-x="0"
     inkscape:window-y="25"
     inkscape:window-maximized="1"
     inkscape:current-layer="g1" />
  <defs
     id="defs1" />
  <g
     id="g1"
     transform="translate(-11.363636,9.0909091)">
    <ellipse
       style="fill:none;stroke-width:3.51932"
       id="path2"
       cx="200.83199"
       cy="405.17877"
       rx="304.27444"
       ry="263.03244" />
    <ellipse
       style="fill:none;stroke-width:3.51932"
       id="path2-0"
       cx="309.06909"
       cy="430.97366"
       rx="304.27444"
       ry="263.03244" />
    <path
       style="color:#000000;font-style:normal;font-variant:normal;font-weight:normal;font-stretch:normal;font-size:medium;line-height:normal;font-family:sans-serif;font-variant-ligatures:normal;font-variant-position:normal;font-variant-caps:normal;font-variant-numeric:normal;font-variant-alternates:normal;font-variant-east-asian:normal;font-feature-settings:normal;font-variation-settings:normal;text-indent:0;text-align:start;text-decoration-line:none;text-decoration-style:solid;text-decoration-color:#000000;letter-spacing:normal;word-spacing:normal;text-transform:none;writing-mode:lr-tb;direction:ltr;text-orientation:mixed;dominant-baseline:auto;baseline-shift:baseline;text-anchor:start;white-space:normal;shape-padding:0;shape-margin:0;inline-size:0;clip-rule:nonzero;display:inline;overflow:visible;visibility:visible;isolation:auto;mix-blend-mode:normal;color-interpolation:sRGB;color-interpolation-filters:linearRGB;solid-color:#000000;solid-opacity:1;vector-effect:none;fill:#000000;fill-opacity:1;fill-rule:nonzero;stroke:none;stroke-width:3.51932;stroke-linecap:butt;stroke-linejoin:miter;stroke-miterlimit:4;stroke-dasharray:none;stroke-dashoffset:0;stroke-opacity:1;-inkscape-stroke:none;color-rendering:auto;image-rendering:auto;shape-rendering:auto;text-rendering:auto;enable-background:accumulate;stop-color:#000000"
       d="m 218.93197,602.00257 c -3.46903,-3.46906 -3.45252,-5.41763 0.15767,-18.58784 9.22896,-33.66978 27.45663,-64.11647 55.05246,-91.95716 11.43751,-11.53901 17.5222,-16.18982 21.19129,-16.19746 1.11211,-0.002 3.26593,1.23972 4.78628,2.76007 5.12965,5.12965 4.04975,7.23761 -11.71283,22.86357 -28.94241,28.69159 -46.53982,58.37952 -54.74912,92.36519 -2.08689,8.63954 -4.42231,11.51788 -9.34524,11.51788 -1.43883,0 -3.85999,-1.2439 -5.38034,-2.76425 z m 366.72717,0.79343 c -1.5876,-1.30472 -3.3592,-5.58104 -5.24158,-12.65244 -9.60242,-36.07221 -30.78231,-69.17291 -62.15152,-97.13261 -4.98518,-4.44334 -5.91245,-5.88302 -5.91245,-9.17964 0,-6.84462 6.47407,-10.48522 12.11466,-6.81252 17.76396,11.56652 45.84194,46.48674 58.68263,72.98286 9.96713,20.56675 16.98205,43.93855 14.86173,49.51541 -1.96951,5.18019 -8.06969,6.79935 -12.35347,3.27894 z M 399.04018,519.30048 c -10.26751,-2.64411 -18.23965,-8.90032 -22.84521,-17.9279 -2.27344,-4.45634 -4.61414,-15.1222 -4.61414,-21.02529 v -3.50443 l -13.79573,0.44994 c -11.89569,0.38793 -14.77732,0.1179 -20.92301,-1.96149 -8.23055,-2.7847 -13.27247,-5.7983 -20.67469,-12.35742 -6.86556,-6.08353 -14.42984,-17.4232 -14.42984,-21.63177 0,-5.76258 5.90433,-9.30798 11.75935,-7.0612 0.99434,0.38156 3.59501,3.38618 5.77928,6.67689 7.43695,11.20427 18.47874,18.83465 29.32506,20.26497 12.66817,1.67054 31.61668,-3.54684 40.66059,-11.19573 1.9931,-1.68561 5.25983,-6.38809 7.25948,-10.44995 l 3.6357,-7.38515 -3.3178,-2.30424 c -11.93497,-8.2888 -21.6801,-23.03447 -24.09277,-36.45531 -4.11549,-22.89353 8.57004,-32.16616 41.6093,-30.41466 11.12045,0.58952 13.82663,1.12938 19.14509,3.81947 7.60686,3.84758 11.27721,10.00413 11.2343,18.8443 -0.0693,14.27193 -5.10065,24.96141 -17.66783,37.53615 -5.13317,5.13626 -9.33302,9.84082 -9.33302,10.45459 0,3.08029 6.12847,12.54947 10.76131,16.62744 6.47368,5.69838 14.99642,8.97813 27.21372,10.47254 10.99401,1.3448 18.27277,0.16788 25.63046,-4.14396 5.14871,-3.01729 13.4632,-11.3062 16.92705,-16.87489 2.97748,-4.78676 4.99976,-6.16623 9.03966,-6.16623 4.39256,0 7.65486,3.34772 7.65486,7.85526 0,7.87321 -15.10526,24.50769 -28.36295,31.23434 l -8.41273,4.26841 H 461.4938 444.78188 l 4e-4,5.79385 c 9.9e-4,14.80159 -8.51886,29.00349 -20.51928,34.20395 -6.40217,2.77438 -19.02326,3.95406 -25.22282,2.35752 z m 18.71183,-17.57812 c 1.79541,-0.92847 4.68424,-3.54804 6.41962,-5.82131 2.86311,-3.75053 3.18938,-5.13214 3.52439,-14.92307 l 0.36921,-10.78991 -4.03817,-2.15294 c -2.22101,-1.18412 -6.60253,-4.86437 -9.73677,-8.17834 l -5.69858,-6.02542 -6.60107,6.60108 c -3.6306,3.63063 -8.15719,7.24567 -10.0591,8.03344 -3.43961,1.42473 -3.45773,1.47801 -3.40853,10.02366 0.10024,17.46655 5.97365,24.77325 19.9962,24.87683 3.28261,0.0246 7.43738,-0.71559 9.2328,-1.64402 z m -2.58529,-89.81421 c 7.65722,-7.20098 12.72103,-17.01858 12.72233,-24.66581 8.1e-4,-4.8643 -0.25304,-5.32769 -3.54572,-6.47555 -5.02772,-1.7527 -28.96286,-1.57043 -32.49122,0.24741 -2.49439,1.28514 -2.79768,2.1195 -2.65951,7.31701 0.21748,8.17608 4.68322,16.76336 12.37262,23.79105 3.42922,3.13414 6.47783,5.69838 6.77469,5.69838 0.29703,0 3.36894,-2.66061 6.82681,-5.91245 z m -167.35406,50.1151 c -1.80069,-1.48487 -3.0686,-5.26476 -5.14211,-15.32962 -6.57469,-31.91407 -15.78481,-50.19165 -37.24865,-73.9203 -17.48644,-19.33159 -24.82724,-31.51207 -28.6823,-47.59208 -3.06769,-12.79572 -3.04959,-32.86801 0.0411,-45.76111 12.66304,-52.82307 69.21022,-94.69987 133.42311,-98.80836 6.29849,-0.403 13.97279,-1.84229 20.27128,-3.80181 36.62476,-11.39432 80.2103,-13.91278 125.28904,-7.23945 19.6405,2.90753 38.90427,8.70718 43.20445,13.00733 4.69731,4.69731 8.70404,30.9657 1.9435,30.9657 -1.69005,0 -15.12075,-18.82893 -15.81468,-22.01192 -4.48359,-20.56581 -93.94409,-20.60768 -133.87372,-12.89319 -20.17029,3.89694 -20.0644,14.66088 -26.16845,20.91738 -11.15078,11.42927 -22.55531,32.17783 -28.37641,51.62595 -6.83667,22.84122 -7.51068,35.5303 -6.18943,116.52373 0.38689,23.71644 0.13726,29.9298 -1.58389,39.41638 -4.50907,24.85317 -14.33021,42.87016 -29.26684,53.6902 -5.05518,3.66195 -8.43432,4.00804 -11.82611,1.21117 z m 17.43063,-33.11179 c 7.64629,-15.08923 10.17013,-35.41769 8.78745,-70.7785 -1.36476,-34.90155 -1.10988,-70.65706 0.59002,-82.77439 3.8803,-27.65966 14.22611,-55.30793 27.98548,-74.78862 l 1.91624,-2.71301 -6.16874,0.80452 c -33.47182,4.36536 -68.94613,24.30057 -87.94377,49.42109 -15.65393,20.69912 -22.11427,42.70457 -19.04774,64.88128 2.51272,18.17193 6.83712,26.19591 25.74722,47.77412 22.63665,25.83058 32.61266,43.84477 39.04787,70.51076 l 2.01755,8.36027 2.20141,-2.71859 c 1.21079,-1.49526 3.40092,-5.08578 4.86701,-7.97893 z m 290.10567,30.52456 c -11.58454,-9.22374 -20.73371,-24.15783 -24.89798,-40.64078 -4.11719,-16.29645 -4.98171,-29.74591 -3.89934,-60.66228 2.37941,-67.96414 -0.37636,-85.53103 -19.28579,-122.93907 -4.63456,-9.16839 -7.13257,-46.41035 -7.13257,-47.9692 0,-6.24232 7.06433,18.85246 12.01903,23.0969 3.24436,2.77925 18.66869,34.16143 22.6458,46.07492 1.82741,5.47396 4.49322,15.27381 5.924,21.77752 2.5231,11.46868 2.60229,13.52125 2.62808,68.13401 l 0.0282,56.3091 2.964,10.81664 c 2.90629,10.60598 5.35658,16.32829 9.78836,22.85948 l 2.21832,3.26921 1.25405,-4.95848 c 7.4511,-29.46194 18.11689,-49.36204 38.77526,-72.34649 11.80407,-13.1332 17.57882,-20.90026 21.14206,-28.43607 6.97384,-14.7488 8.55803,-35.04573 3.9713,-50.88157 -8.42437,-29.08556 -38.56822,-55.28231 -80.13316,-69.64036 -6.61693,-2.28573 -42.07583,-16.13039 -42.95752,-17.01205 -2.77164,-2.77168 -1.60713,-9.57218 -5.4984,-11.6497 -10.43778,-5.57267 42.8754,8.7599 58.51758,14.64008 38.9718,14.65029 69.25512,39.46899 81.73009,66.98193 5.68303,12.53367 7.13855,20.05826 7.09723,36.69028 -0.0697,28.06684 -6.59534,43.11682 -29.54264,68.13401 -20.58661,22.44361 -32.82317,45.566 -37.41648,70.70287 -1.1699,6.40227 -1.86355,18.61339 -4.29136,19.77125 -3.98354,1.89984 -4.67752,-3.52404 -1.00954,-3.0005 l 2.58226,0.36858 -2.72821,2.53391 c -4.03153,3.74441 -7.92995,3.1999 -14.49104,-2.02414 z"
       id="path1-4" />
    <path
       d="m 318.3598,304.95886 c 9.5035,-7.28604 41.04059,-12.27116 50.54944,-9.32081 8.53288,0.86065 -5.8288,-9.83847 -5.8288,-9.83847 l -18.78618,-5.10984 c -10.90514,-2.96619 -24.33106,1.94118 -34.29294,9.33883 -7.26549,5.39536 -8.15504,13.73587 -1.79478,16.82854 4.14959,2.01773 5.33433,1.79622 10.15326,-1.89825 z"
       style="color:#000000;font-style:normal;font-variant:normal;font-weight:normal;font-stretch:normal;font-size:medium;line-height:normal;font-family:sans-serif;font-variant-ligatures:normal;font-variant-position:normal;font-variant-caps:normal;font-variant-numeric:normal;font-variant-alternates:normal;font-variant-east-asian:normal;font-feature-settings:normal;font-variation-settings:normal;text-indent:0;text-align:start;text-decoration-line:none;text-decoration-style:solid;text-decoration-color:#000000;letter-spacing:normal;word-spacing:normal;text-transform:none;writing-mode:lr-tb;direction:ltr;text-orientation:mixed;dominant-baseline:auto;baseline-shift:baseline;text-anchor:start;white-space:normal;shape-padding:0;shape-margin:0;inline-size:0;clip-rule:nonzero;display:inline;overflow:visible;visibility:visible;isolation:auto;mix-blend-mode:normal;color-interpolation:sRGB;color-interpolation-filters:linearRGB;solid-color:#000000;solid-opacity:1;vector-effect:none;fill:#000000;fill-opacity:1;fill-rule:nonzero;stroke:none;stroke-width:3.51932;stroke-linecap:butt;stroke-linejoin:miter;stroke-miterlimit:4;stroke-dasharray:none;stroke-dashoffset:0;stroke-opacity:1;-inkscape-stroke:none;color-rendering:auto;image-rendering:auto;shape-rendering:auto;text-rendering:auto;enable-background:accumulate;stop-color:#000000"
       id="path1-5-4" />
    <path
       d="m 498.31203,304.76269 c -9.5035,-7.60609 -41.0406,-13.6533 -50.54945,-11.02318 -8.53287,0.5733 5.8288,-9.64215 5.8288,-9.64215 l 18.78619,-4.47717 c 10.90514,-2.59895 24.33106,2.76055 34.29295,10.49369 7.2655,5.64002 8.15504,14.01051 1.79478,16.88896 -4.14959,1.87802 -5.33434,1.6166 -10.15327,-2.24015 z"
       style="color:#000000;font-style:normal;font-variant:normal;font-weight:normal;font-stretch:normal;font-size:medium;line-height:normal;font-family:sans-serif;font-variant-ligatures:normal;font-variant-position:normal;font-variant-caps:normal;font-variant-numeric:normal;font-variant-alternates:normal;font-variant-east-asian:normal;font-feature-settings:normal;font-variation-settings:normal;text-indent:0;text-align:start;text-decoration-line:none;text-decoration-style:solid;text-decoration-color:#000000;letter-spacing:normal;word-spacing:normal;text-transform:none;writing-mode:lr-tb;direction:ltr;text-orientation:mixed;dominant-baseline:auto;baseline-shift:baseline;text-anchor:start;white-space:normal;shape-padding:0;shape-margin:0;inline-size:0;clip-rule:nonzero;display:inline;overflow:visible;visibility:visible;isolation:auto;mix-blend-mode:normal;color-interpolation:sRGB;color-interpolation-filters:linearRGB;solid-color:#000000;solid-opacity:1;vector-effect:none;fill:#000000;fill-opacity:1;fill-rule:nonzero;stroke:none;stroke-width:3.51932;stroke-linecap:butt;stroke-linejoin:miter;stroke-miterlimit:4;stroke-dasharray:none;stroke-dashoffset:0;stroke-opacity:1;-inkscape-stroke:none;color-rendering:auto;image-rendering:auto;shape-rendering:auto;text-rendering:auto;enable-background:accumulate;stop-color:#000000"
       id="path1-5-4-7" />
    <path
       style="fill:#1a1a1a;stroke:#000000;stroke-width:14.4292;stroke-dasharray:none;stroke-opacity:1"
       d="m 266.83779,442.8701 27.74236,41.21727"
       id="path40" />
    <path
       style="fill:#1a1a1a;stroke:#000000;stroke-width:14.8373;stroke-dasharray:none;stroke-opacity:1"
       d="M 545.99423,447.2022 516.4525,488.12935"
       id="path40-4" />
    <path
       style="fill:#1a1a1a;stroke:#000000;stroke-width:14.4292;stroke-dasharray:none;stroke-opacity:1"
       d="m 220.07205,597.43482 370.16259,-2.37794"
       id="path41" />
    <path
       style="fill:#b3b3b3;stroke:#b3b3b3;stroke-width:17.476;stroke-dasharray:none;stroke-opacity:1"
       d="m 553.29861,429.72009 c -1.9274,-3.80354 -4.76389,-11.46073 -6.30335,-17.01601 -2.58676,-9.33468 -2.79898,-14.09759 -2.79898,-62.81815 0,-55.69911 -0.79438,-66.42765 -6.35938,-85.88585 -3.10337,-10.85106 -13.51186,-41.05556 -23.94175,-59.1644 -2.32466,-4.03612 -10e-4,-0.83207 0.3934,-1.22672 0.39465,-0.39466 2.63777,-2.78264 7.5321,-0.59115 8.6816,3.88728 21.20116,10.8986 28.6492,13.92911 52.69697,21.44167 80.0038,56.94852 74.01835,96.24557 -2.32401,15.25831 -8.62356,27.06778 -24.41506,45.76994 -21.76583,25.77763 -29.48007,38.73231 -37.27325,62.59376 -2.42277,7.41815 -4.76322,13.84574 -5.20099,14.28351 -0.43774,0.43776 -2.37286,-2.31608 -4.30029,-6.11961 z"
       id="path43" />
    <path
       style="fill:#b3b3b3;stroke:#b3b3b3;stroke-width:14.714;stroke-dasharray:none;stroke-opacity:1"
       d="m 258.08679,434.98102 c -10.37615,-34.16738 -15.92809,-44.95515 -35.38946,-68.76405 -20.39006,-24.945 -21.96798,-27.10527 -25.54428,-34.97182 -1.84138,-4.05028 -4.08378,-12.68789 -4.98314,-19.19461 -5.53085,-40.0152 23.18967,-81.55762 70.6619,-102.20806 11.8,-5.13301 22.66072,-8.38672 33.96368,-10.17503 l 5.85217,-0.92593 -5.49573,9.04617 c -7.12929,11.73509 -14.34404,29.27499 -18.63123,45.29493 -5.54807,20.73132 -6.55833,36.89671 -5.58883,89.43001 0.95085,51.52522 -0.0246,64.4331 -6.06407,80.33571 -3.5826,9.43167 -7.82231,15.28965 -8.78101,12.13268 z"
       id="path44" />
    <path
       style="fill:#f2f2f2;stroke:#000000;stroke-width:0;stroke-dasharray:none;stroke-opacity:1"
       d="M 371.79669,738.06477 C 234.19173,725.67531 117.81451,634.04155 74.723863,504.1538 61.646453,464.73475 56.821203,431.1966 57.945123,387.53321 c 1.88815,-73.35302 23.83184,-136.21981 68.406187,-195.97774 12.87558,-17.26145 43.44423,-48.9312 58.84597,-60.96562 67.38247,-52.65045 143.51945,-77.989722 226.19855,-75.281535 28.27241,0.926108 46.93022,3.586115 74.76976,10.659876 93.65488,23.79679 173.79572,87.727289 218.82635,174.563669 18.11028,34.9236 28.99011,68.8049 35.23862,109.738 2.95749,19.37423 3.38048,68.88951 0.74867,87.63794 -9.38789,66.87634 -33.23782,123.07325 -73.44762,173.06239 -12.2687,15.25256 -37.61579,40.71982 -51.73532,51.98066 -49.51637,39.49098 -111.93145,65.84868 -174.58586,73.72695 -16.60087,2.08742 -53.45506,2.82379 -69.41374,1.38697 z M 598.28643,600.36599 c 2.4251,-3.16365 1.15853,-11.52819 -4.11949,-27.20595 -9.02945,-26.82087 -27.49183,-56.54972 -49.67628,-79.99064 l -12.02562,-12.70674 9.02526,-12.67377 9.02533,-12.67381 4.7408,4.16251 c 3.04281,2.67162 6.23909,4.16251 8.9239,4.16251 7.53473,0 9.12964,-1.86968 10.873,-12.74617 5.33441,-33.28011 14.38719,-50.86038 44.55501,-86.52449 18.30007,-21.63417 23.19122,-34.64329 23.25678,-61.85671 0.0595,-24.69643 -5.71618,-41.09421 -20.72791,-58.8484 -22.40437,-26.49737 -54.3412,-43.56192 -106.01374,-56.64544 -7.75777,-1.96427 -16.27473,-5.04379 -18.92658,-6.84338 -5.28862,-3.58898 -21.54791,-8.36958 -38.73485,-11.38894 -16.34787,-2.87194 -64.81435,-3.99256 -83.71773,-1.93567 -8.60823,0.93667 -24.03555,3.84863 -34.28298,6.47104 -10.24742,2.62243 -26.36009,5.72411 -35.80587,6.89266 -38.63357,4.77934 -71.53733,19.88493 -95.92748,44.03878 -23.49096,23.26341 -33.88165,47.15716 -33.88165,77.9121 0,26.24039 5.19966,40.23183 22.82392,61.41556 30.55704,36.7285 36.91216,48.44797 44.78164,82.58198 1.54639,6.70758 3.44762,13.38394 4.2249,14.83636 2.04311,3.81755 9.37807,3.42475 15.11742,-0.80958 2.57216,-1.89769 4.8505,-3.45034 5.06299,-3.45034 0.21257,0 4.08414,5.49946 8.60368,12.22101 l 8.2174,12.22097 -7.60532,7.44578 c -26.83258,26.26994 -46.85793,58.8015 -56.28908,91.44279 -4.16814,14.4259 -4.36966,18.37144 -1.12164,21.96044 2.36854,2.61722 5.80589,2.64945 190.11218,1.78233 174.96302,-0.82317 187.82307,-1.04348 189.51201,-3.24679 z"
       id="path45"
       sodipodi:nodetypes="csssssssssssscssscccssssssssssscsssssssscsssss" />
    <path
       style="fill:#b3b3b3;stroke:#b3b3b3;stroke-width:12.9;stroke-dasharray:none;stroke-opacity:1"
       d="m 401.77349,411.20608 c -9.06929,-8.48325 -14.6958,-23.03201 -10.88592,-28.14835 1.54557,-2.07563 3.00145,-2.26325 17.56252,-2.26325 11.27358,0 16.29132,0.41409 17.30534,1.4281 2.03604,2.03604 1.45425,9.54943 -1.20494,15.56096 -2.18058,4.92955 -14.08055,18.65679 -16.17335,18.65679 -0.5543,0 -3.52593,-2.35541 -6.60365,-5.23425 z"
       id="path49" />
    <path
       style="fill:#808080;fill-opacity:0;stroke:#b3b3b3;stroke-width:0.45;stroke-dasharray:none;stroke-opacity:1"
       d="m 243.4854,565.05236 c 0.71295,-2.3185 7.6141,-15.67746 11.08743,-21.46258 8.69415,-14.48087 17.77016,-25.6893 35.61036,-43.97705 5.26418,-5.39624 10.2744,-10.92012 11.13382,-12.27528 2.53404,-3.99576 1.95937,-7.05665 -1.9781,-10.53611 -0.87675,-0.77477 -6.44593,-8.63203 -12.37596,-17.46057 l -10.78187,-16.0519 1.88086,-3.31982 c 5.92779,-10.46291 10.56673,-26.01074 12.23781,-41.01617 0.41245,-3.70362 0.48073,-19.25326 0.23334,-53.14136 -0.43285,-59.2945 0.002,-68.6306 3.9609,-85.12661 5.51471,-22.97622 16.10683,-44.32714 29.58611,-59.63779 1.77461,-2.01571 4.37349,-5.52579 5.7753,-7.80018 3.42892,-5.5633 6.76923,-8.78918 11.38509,-10.99507 4.60281,-2.19964 8.22722,-3.15875 16.98073,-4.49354 34.86139,-5.31586 82.66583,-4.58989 106.90733,1.62354 6.447,1.65245 13.44272,4.66547 16.13666,6.94997 0.95942,0.8136 2.70677,3.49832 4.06083,6.23923 2.41637,4.89132 8.30561,13.53948 12.66486,18.59796 1.65244,1.9175 2.69693,2.71603 3.33451,2.5493 0.79929,-0.20902 1.01252,0.34918 1.53338,4.01421 1.37315,9.66211 2.9464,14.98022 6.82048,23.05547 9.94516,20.72998 13.66099,33.04368 16.05111,53.19105 0.99286,8.36932 1.17597,28.4229 0.70036,76.70157 -0.22384,22.72177 -0.14586,26.40258 0.68216,32.19895 2.0119,14.08392 5.09541,24.58725 10.06189,34.27372 l 2.72002,5.30504 -12.72633,17.51428 c -6.99948,9.63286 -13.69675,18.92289 -14.88282,20.64452 -2.15414,3.12681 -2.15531,3.13118 -1.06924,4.01062 0.59798,0.48422 1.08724,1.29716 1.08724,1.80654 0,0.51356 5.32298,6.19039 11.94898,12.7433 16.62698,16.44356 26.1786,28.22452 35.69224,44.02274 4.08324,6.78057 11.52109,21.28165 11.52109,22.4619 0,0.40725 -46.48787,0.56813 -164.17141,0.56813 H 243.12315 Z m 176.31801,-46.40709 c 5.93622,-1.5695 8.95343,-3.38559 13.98407,-8.41717 7.20333,-7.20466 10.45891,-15.06091 11.23543,-27.11292 l 0.37949,-5.89005 h 16.44539 16.44538 l 4.83247,-2.41206 c 7.29827,-3.64282 13.05248,-7.68275 18.79907,-13.19846 13.26144,-12.72865 16.56721,-21.86565 9.75197,-26.95397 -3.61788,-2.70113 -9.19799,-1.27636 -12.43072,3.17395 -4.77713,6.5764 -6.32376,8.3792 -10.92185,12.73082 -8.45137,7.99836 -15.85267,10.77879 -27.32935,10.26675 -11.08122,-0.49439 -21.24708,-3.30618 -28.14272,-7.78401 -5.39506,-3.50341 -11.91301,-11.39073 -14.0691,-17.02489 -1.01029,-2.64003 -1.63844,-1.71878 8.96575,-13.14909 8.5924,-9.26179 12.19896,-14.66207 14.85811,-22.24782 1.83293,-5.22878 1.8716,-5.50518 1.88359,-13.46144 l 0.0122,-8.12305 -1.72081,-3.4986 c -2.02464,-4.11633 -4.89615,-6.8452 -9.63369,-9.15513 -4.51726,-2.20253 -6.55531,-2.68739 -13.8292,-3.28999 -25.79442,-2.13695 -40.6139,1.98268 -45.54446,12.66077 -1.46749,3.17813 -1.52185,3.57611 -1.48757,10.8903 0.0321,6.85234 0.1784,8.025 1.50221,12.04189 4.07576,12.36722 12.44547,23.96376 22.44636,31.10025 l 3.42927,2.44708 -1.63511,3.51429 c -3.99776,8.59224 -7.26477,12.99561 -11.95557,16.11405 -9.46126,6.28983 -25.6534,10.29115 -36.66141,9.05958 -10.65678,-1.19228 -20.38579,-7.55761 -28.89683,-18.90613 -5.68157,-7.57575 -6.39462,-8.21374 -9.57082,-8.56347 -2.0411,-0.22474 -3.04516,-0.0337 -4.8934,0.93129 -5.17202,2.70026 -5.80013,6.50368 -2.19091,13.26662 4.76426,8.92725 13.28764,17.75564 22.36861,23.16909 2.39219,1.42606 7.0111,3.50865 10.26426,4.62799 l 5.91483,2.03517 14.52879,-0.11361 14.5288,-0.1136 v 3.5898 c 0,3.72532 1.04901,10.2447 2.44962,15.2238 2.3836,8.47364 9.03709,16.46053 16.93983,20.3347 6.806,3.33651 9.02475,3.78417 17.52154,3.53518 5.16151,-0.15126 8.54172,-0.53521 11.42645,-1.29791 z M 316.8322,306.40904 c 6.03657,-4.05558 9.90042,-5.67641 18.92062,-7.93691 11.01466,-2.76032 25.5174,-3.99668 32.57179,-2.77674 1.40647,0.24323 2.67207,0.19846 3.1402,-0.11107 0.68566,-0.45337 0.65595,-0.75662 -0.23642,-2.41366 -1.0158,-1.88623 -6.40366,-6.78163 -8.4005,-7.63269 -2.38372,-1.01595 -19.08359,-5.32994 -21.99019,-5.68061 -7.56844,-0.9131 -17.55395,1.62006 -25.8583,6.55984 -7.87947,4.68705 -11.05446,8.58729 -11.05074,13.57505 0.002,3.26971 1.34552,5.61023 4.03339,7.02876 3.0457,1.60737 5.85528,1.41353 8.87015,-0.61197 z m 191.45514,0.99199 c 2.86571,-1.19737 4.53989,-3.65806 4.53989,-6.67267 0,-4.7005 -2.52359,-8.43867 -8.61206,-12.75701 -7.59753,-5.38867 -16.29912,-8.64673 -24.11046,-9.02745 -4.93096,-0.24034 -5.86647,-0.10331 -16.07787,2.35506 -11.79572,2.83978 -12.42094,3.14031 -17.10503,8.22195 -3.56912,3.87203 -3.13212,4.22899 4.92168,4.02024 14.25341,-0.36944 36.25059,4.74922 44.49159,10.35302 1.15183,0.78323 3.01063,2.05337 4.13065,2.82254 2.30341,1.58183 5.09005,1.82564 7.82161,0.68432 z"
       id="path53" />
    <path
       style="fill:#808080;fill-opacity:0;stroke:#b3b3b3;stroke-width:0.235602;stroke-dasharray:none;stroke-opacity:1"
       d="m 244.51024,563.75445 c 1.70761,-4.13066 10.33722,-19.77049 14.02013,-25.40932 7.7282,-11.83251 13.76784,-19.09464 31.39196,-37.74608 6.80107,-7.1975 11.83513,-12.97514 12.49759,-14.3436 1.26169,-2.60631 1.10792,-5.1766 -0.42674,-7.133 -0.52033,-0.66333 -2.12407,-2.68358 -3.56386,-4.48944 -1.43979,-1.80586 -6.8996,-9.55956 -12.13291,-17.23044 l -9.51511,-13.94707 1.97793,-3.66492 c 4.29003,-7.94903 7.7833,-18.10794 10.26187,-29.84294 1.95909,-9.27548 2.29809,-20.81888 1.96806,-67.0157 -0.39562,-55.37861 0.26037,-67.62675 4.50214,-84.06002 5.5459,-21.48568 14.54015,-39.7721 27.23506,-55.37227 2.50366,-3.07664 6.04447,-7.78211 7.86845,-10.45659 6.63615,-9.7305 12.14163,-12.52684 29.55111,-15.00961 21.50123,-3.06628 45.50098,-4.09392 67.60277,-2.89467 23.64006,1.28271 38.55513,4.02841 48.66796,8.95924 4.28675,2.09013 5.21244,3.1076 9.38693,10.31766 5.60654,9.68345 12.96032,19.22115 15.46317,20.05544 0.32059,0.10686 1.05413,2.94916 1.6301,6.31622 1.41431,8.26795 2.55219,11.75004 7.15083,21.88282 8.31922,18.33076 11.3656,27.5336 13.77,41.59781 1.96476,11.49262 2.11937,16.28105 2.1125,65.42743 -0.007,52.07162 -0.0164,51.86961 2.93525,65.1649 1.72658,7.77721 4.33039,15.21741 7.75025,22.14573 2.23297,4.5238 2.63484,5.72432 2.10314,6.28272 -2.09795,2.20329 -28.5094,39.46709 -28.5094,40.22379 0,0.50282 0.35341,1.20752 0.78534,1.56599 0.43194,0.35848 0.78534,0.95887 0.78534,1.33421 0,0.37534 5.66276,6.49813 12.58389,13.60621 17.60082,18.07618 25.80642,28.14964 34.31624,42.12765 2.82839,4.64586 12.26218,22.49216 12.26218,23.19691 0,0.175 -73.63089,0.33328 -163.62418,0.35173 l -163.62419,0.0335 z m 174.07615,-44.47486 c 5.42831,-1.07574 9.65759,-3.2278 13.79643,-7.0203 8.508,-7.79603 12.03965,-15.81466 13.18183,-29.92945 l 0.37072,-4.58115 h 16.1789 16.1789 l 4.83247,-2.42599 c 7.39585,-3.71286 13.17512,-7.79547 19.10659,-13.49732 13.19711,-12.68621 16.5513,-21.73761 10.07483,-27.18721 -3.01945,-2.5407 -7.60012,-2.33855 -10.95382,0.4834 -0.86544,0.72822 -3.08797,3.25466 -4.93895,5.61432 -4.26488,5.43692 -11.24466,12.22538 -15.09716,14.68334 -4.14742,2.64612 -7.49163,3.86081 -12.7043,4.61448 -8.70478,1.25858 -22.83859,-1.12844 -31.49728,-5.31948 -6.79993,-3.29136 -13.87371,-10.51538 -17.21715,-17.58283 l -1.37852,-2.91395 1.28387,-1.68325 c 0.70613,-0.92579 3.56624,-4.14827 6.3558,-7.16108 10.08136,-10.8882 14.5127,-17.49238 17.26271,-25.72721 1.22625,-3.67199 1.34214,-4.77323 1.34214,-12.75394 v -8.73493 l -1.64421,-3.08485 c -2.78741,-5.22971 -8.13635,-9.16009 -15.13709,-11.12264 -6.00308,-1.68288 -21.6216,-2.38071 -30.6009,-1.36724 -12.63022,1.42555 -20.19546,5.45666 -23.80801,12.68599 -1.55853,3.11891 -1.58466,3.30452 -1.58466,11.25642 0,7.62491 0.0912,8.35789 1.60127,12.87449 3.94008,11.78447 12.17546,23.31239 21.56154,30.18194 l 3.93446,2.87958 -2.35241,4.71204 c -4.58458,9.18329 -8.41063,13.33052 -15.58256,16.89067 -7.72492,3.83466 -18.52245,6.40776 -26.88893,6.40776 -6.4198,0 -9.6704,-0.64422 -14.56376,-2.88632 -7.20351,-3.30058 -11.98054,-7.37183 -18.95509,-16.15453 -5.6208,-7.07801 -6.21564,-7.62506 -8.96199,-8.24212 -3.02201,-0.67901 -5.84011,0.20043 -8.37776,2.61445 -1.91828,1.82482 -2.0954,2.2224 -2.0954,4.70367 0,3.31597 1.89418,7.66424 5.6238,12.90993 7.75895,10.91295 17.54343,18.28247 30.1509,22.70922 l 4.62287,1.62319 h 14.54047 14.54047 l 0.30275,4.58115 c 1.19897,18.14305 8.65453,30.04313 22.45519,35.84155 1.96198,0.82434 4.92371,1.70542 6.58162,1.95796 3.87,0.5895 13.41366,0.15016 18.45942,-0.84976 z M 319.15335,305.5852 c 10.29572,-6.25736 25.2464,-9.60673 43.36829,-9.7157 7.19816,-0.0433 9.69731,-0.22361 9.86006,-0.71146 0.38916,-1.16654 -2.03124,-4.35373 -5.44417,-7.16886 -3.68586,-3.04028 -5.30634,-3.64571 -18.50821,-6.91495 -6.95333,-1.72188 -8.03183,-1.85544 -12.82723,-1.58859 -6.4325,0.35797 -10.99029,1.64375 -17.80104,5.02179 -10.0506,4.98497 -14.73974,10.29852 -14.26869,16.16873 0.27103,3.37755 1.50207,5.19694 4.61347,6.81838 3.35512,1.74844 5.64169,1.35182 11.00752,-1.90934 z m 190.49274,1.59145 c 2.57712,-1.9241 3.44504,-3.66081 3.41026,-6.82402 -0.0409,-3.72393 -1.36844,-6.38678 -4.76072,-9.54956 -9.84308,-9.17716 -24.8848,-14.04695 -36.32322,-11.75973 -7.57719,1.51514 -16.73029,3.93253 -19.09034,5.04188 -2.49792,1.17416 -8.64123,7.23814 -8.64123,8.52964 0,1.10344 1.02155,1.25677 10.4712,1.57168 17.34366,0.57799 34.72821,5.22277 43.51027,11.62501 1.32593,0.96662 2.97515,1.99679 3.66492,2.28927 1.76504,0.74839 6.23115,0.21643 7.75886,-0.92417 z"
       id="path54" />
    <path
       style="fill:#b3b3b3;fill-opacity:1;stroke:#b3b3b3;stroke-width:4.136;stroke-dasharray:none;stroke-opacity:1"
       d="m 406.93234,565.31414 -162.70117,-0.13256 2.42397,-4.82642 c 11.26788,-22.43569 18.78739,-32.88344 40.23613,-55.9049 16.00082,-17.17406 16.50692,-17.83406 16.50991,-21.53018 0.002,-2.20915 -0.36007,-2.90415 -4.14877,-7.96832 -2.28291,-3.05145 -7.27171,-10.09061 -11.08622,-15.64259 -3.81452,-5.55198 -7.81185,-11.35523 -8.88296,-12.89611 l -1.94748,-2.80161 3.0482,-6.3607 c 4.45309,-9.29228 8.3802,-22.11434 9.9794,-32.58286 0.34193,-2.23832 0.71985,-26.10968 0.98981,-62.52129 0.26473,-35.70516 0.65782,-60.75615 0.99819,-63.61257 2.36824,-19.8743 8.67124,-39.52063 17.97282,-56.02094 4.91137,-8.71243 21.63158,-31.4817 26.2319,-35.72212 4.4832,-4.13247 9.84485,-6.13677 21.29733,-7.96143 17.74787,-2.82765 35.90506,-3.93494 57.85341,-3.5281 30.7504,0.57 49.08554,3.40287 60.59992,9.36301 4.3771,2.2657 4.57295,2.49822 11.15292,13.24131 3.48361,5.68765 9.8077,14.01122 12.0494,15.85902 1.7144,1.41315 1.92258,1.92873 3.1288,7.7489 1.88349,9.08807 2.46002,10.80151 7.53944,22.40711 7.87179,17.98568 10.61106,26.15774 12.8732,38.40463 2.04443,11.06826 2.33866,18.50603 2.3561,59.5594 0.0207,48.67572 0.43517,60.13937 2.53869,70.21263 1.85826,8.89875 4.3856,16.63724 7.91201,24.22581 1.44341,3.10612 2.62439,5.82132 2.62439,6.03378 0,0.21246 -2.43354,3.72715 -5.40787,7.81044 -6.26058,8.59478 -16.7215,23.40432 -20.68772,29.28763 l -2.73868,4.06244 1.31191,2.22028 c 0.72155,1.22116 5.71126,6.81453 11.08825,12.42971 25.91886,27.06705 33.54938,37.36079 45.69207,61.6397 2.76927,5.53705 2.94825,5.98868 2.28654,5.76951 -0.21597,-0.0715 -73.6082,-0.1897 -163.09384,-0.26261 z m 13.39463,-46.15917 c 5.80153,-1.51426 8.91059,-3.36546 13.70444,-8.15988 4.78635,-4.78691 7.58905,-9.25191 9.40898,-14.98949 1.11361,-3.5108 1.59769,-6.29744 2.694,-15.50822 l 0.26485,-2.22513 h 16.02384 16.02385 l 4.97379,-2.65756 c 6.5129,-3.47994 9.44951,-5.38909 14.29489,-9.29349 10.33697,-8.32949 18.25298,-19.22755 18.25298,-25.12908 0,-2.18924 -2.14083,-5.96213 -4.13502,-7.28737 -2.17472,-1.44522 -6.11542,-1.58457 -8.79894,-0.31116 -1.12483,0.53377 -4.08232,3.50047 -7.63749,7.66128 -9.71946,11.37525 -16.35072,16.22979 -24.56927,17.98641 -7.78504,1.66397 -22.29319,-0.17052 -31.36552,-3.96601 -7.29292,-3.05107 -14.30073,-9.53734 -18.63876,-17.25162 -2.27407,-4.04396 -2.63266,-3.25407 5.6162,-12.37112 7.69784,-8.50801 11.48135,-13.5449 14.35322,-19.10803 3.54929,-6.87537 4.03194,-9.00167 4.35204,-19.173 l 0.2821,-8.96359 -1.50939,-2.79513 c -3.25759,-6.03253 -9.44995,-10.47985 -17.04419,-12.24107 -5.33829,-1.23804 -18.78909,-1.90572 -26.52769,-1.3168 -14.56235,1.10822 -22.63378,4.91971 -26.8385,12.67371 l -1.77963,3.28185 0.0248,8.63874 c 0.023,7.99864 0.12962,8.9401 1.43922,12.70567 4.17329,11.99974 11.85863,22.94232 21.06642,29.99492 2.15013,1.64687 3.90933,3.22682 3.90933,3.511 0,0.28418 -1.23691,2.89989 -2.74869,5.81267 -5.9848,11.53106 -15.3024,17.51191 -31.90531,20.4796 -6.88467,1.2306 -16.16956,0.92679 -20.53884,-0.67206 -8.21462,-3.00596 -14.41847,-8.00172 -22.73528,-18.30797 -2.38635,-2.95718 -4.9413,-5.77145 -5.67766,-6.25394 -0.73637,-0.48248 -2.66479,-0.96649 -4.28538,-1.07557 -2.57852,-0.17356 -3.25768,0.002 -5.43771,1.40218 -4.62752,2.97305 -5.08947,6.53324 -1.74617,13.45758 6.02784,12.48434 18.08276,22.73152 33.79586,28.72786 l 4.8245,1.8411 h 14.29986 14.29986 l 0.34492,3.79581 c 1.6053,17.66568 7.71812,28.63643 19.38358,34.78798 6.39886,3.37432 8.82953,3.85808 18.0741,3.5972 5.87556,-0.1658 9.24577,-0.5241 12.21179,-1.29827 z M 319.40021,305.93984 c 10.99497,-6.30392 23.17004,-9.08565 42.4858,-9.70702 8.27597,-0.26623 10.25681,-0.47336 10.49634,-1.09754 0.83319,-2.17127 -4.68082,-7.91976 -9.86045,-10.27977 -1.55982,-0.7107 -6.72347,-2.28721 -11.47478,-3.50334 -7.56825,-1.93715 -9.28753,-2.2019 -13.87435,-2.13648 -6.57154,0.0937 -12.01453,1.43446 -18.5054,4.55832 -6.47499,3.11622 -10.69301,6.14023 -13.05742,9.36119 -1.73249,2.36013 -1.95302,3.02444 -2.09864,6.32171 -0.1933,4.37748 0.79317,6.4165 3.92718,8.11736 3.25853,1.76843 6.89273,1.27186 11.96172,-1.63443 z m 189.75166,1.78186 c 3.77272,-1.89549 5.09806,-6.10334 3.56726,-11.32588 -1.23694,-4.22001 -9.19608,-10.84459 -17.16678,-14.28833 -6.7748,-2.92705 -9.99072,-3.57672 -17.54188,-3.54372 -7.17448,0.0314 -12.00389,0.93748 -22.16993,4.15971 -4.01029,1.27111 -4.6871,1.69788 -8.24607,5.19958 -3.9506,3.88704 -4.59174,5.13888 -2.96096,5.7814 0.50392,0.19855 4.73334,0.57037 9.39871,0.82628 20.10268,1.10266 34.78207,5.09343 44.92066,12.21222 2.20137,1.54569 3.07588,1.84255 5.49738,1.86612 1.74892,0.017 3.595,-0.3314 4.70161,-0.88738 z"
       id="path56" />
    <path
       style="fill:#b3b3b3;fill-opacity:1;stroke:#b3b3b3;stroke-width:2.16545;stroke-dasharray:none;stroke-opacity:1"
       d="m 235.03433,588.87435 c 0.15847,-0.50393 0.85721,-2.80105 1.55275,-5.10472 0.69554,-2.30366 2.13233,-6.5445 3.19287,-9.42408 1.06054,-2.87958 2.04195,-5.60042 2.18092,-6.04631 0.22742,-0.72972 16.74913,-0.80817 165.39771,-0.78534 l 165.14505,0.0254 2.30652,6.28272 c 2.44301,6.65451 4.61686,13.41864 4.38591,13.64716 -0.0762,0.0754 -38.30601,0.39913 -84.95522,0.7195 -46.64922,0.32037 -117.68325,0.81043 -157.85341,1.08902 -103.05859,0.71474 -101.7064,0.72012 -101.3531,-0.40332 z"
       id="path57" />
  </g>
</svg>
